# xmcd
#
# Track frame offsets:
#	150
#	25789
#	43617
#	73135
#	92986
#	125739
#	148990
#	170784
#	190680
#	211436
#	229179
#	250725
#	266814
#
# Disc length: 3899 seconds
#
# Revision: 1
# Processed by: cddbd v1.4PL0 Copyright (c) Steve Scherf et al.
# Submitted via: audiograbber 1.80
#
DISCID=cb0f390d
DTITLE=Christian Rannenberg - Cool Blues
DYEAR=1900
DGENRE=
TTITLE0=Honey From Amsterdam
TTITLE1=Blue Boogaloo
TTITLE2=Any Day But Today
TTITLE3=Chicago Rock
TTITLE4=Bye Bye Tiger
TTITLE5=Boogie Woogie Red Special
TTITLE6=Since You've Been Gone
TTITLE7=Hooked
TTITLE8=Willow Weep For Me
TTITLE9=Swanee River Boogie
TTITLE10=Early Morning Blues
TTITLE11=Red's Delight
TTITLE12=Nobody's Fool
EXTD=Wonderland Records
EXTT0=
EXTT1=
EXTT2=
EXTT3=
EXTT4=
EXTT5=
EXTT6=
EXTT7=
EXTT8=
EXTT9=
EXTT10=
EXTT11=
EXTT12=
PLAYORDER=
